<mxfile host="Electron" modified="2024-09-29T14:20:00.643Z" agent="Mozilla/5.0 (X11; Linux x86_64) AppleWebKit/537.36 (KHTML, like Gecko) draw.io/24.6.1 Chrome/124.0.6367.207 Electron/30.0.6 Safari/537.36" etag="D6CqIHfh0zutsMca3NGE" version="24.6.1" type="device">
  <diagram name="Page-1" id="K5trmGSR_qKqQNIiK0KC">
    <mxGraphModel dx="1380" dy="843" grid="1" gridSize="10" guides="1" tooltips="1" connect="1" arrows="1" fold="1" page="1" pageScale="1" pageWidth="1100" pageHeight="850" math="0" shadow="0">
      <root>
        <mxCell id="0" />
        <mxCell id="1" parent="0" />
        <mxCell id="Pcv1ixxrA63ozI6IQMF5-33" value="" style="group" vertex="1" connectable="0" parent="1">
          <mxGeometry x="713" y="70" width="265" height="220" as="geometry" />
        </mxCell>
        <mxCell id="Pcv1ixxrA63ozI6IQMF5-28" style="edgeStyle=none;rounded=0;orthogonalLoop=1;jettySize=auto;html=1;entryX=0.5;entryY=0;entryDx=0;entryDy=0;" edge="1" parent="Pcv1ixxrA63ozI6IQMF5-33" source="Pcv1ixxrA63ozI6IQMF5-4" target="Pcv1ixxrA63ozI6IQMF5-27">
          <mxGeometry relative="1" as="geometry" />
        </mxCell>
        <mxCell id="Pcv1ixxrA63ozI6IQMF5-29" style="edgeStyle=none;rounded=0;orthogonalLoop=1;jettySize=auto;html=1;" edge="1" parent="Pcv1ixxrA63ozI6IQMF5-33" source="Pcv1ixxrA63ozI6IQMF5-4" target="Pcv1ixxrA63ozI6IQMF5-25">
          <mxGeometry relative="1" as="geometry" />
        </mxCell>
        <mxCell id="Pcv1ixxrA63ozI6IQMF5-30" style="edgeStyle=none;rounded=0;orthogonalLoop=1;jettySize=auto;html=1;" edge="1" parent="Pcv1ixxrA63ozI6IQMF5-33" source="Pcv1ixxrA63ozI6IQMF5-4" target="Pcv1ixxrA63ozI6IQMF5-26">
          <mxGeometry relative="1" as="geometry" />
        </mxCell>
        <mxCell id="Pcv1ixxrA63ozI6IQMF5-4" value="&lt;span style=&quot;color: rgb(240, 240, 240); font-family: Helvetica; font-size: 12px; font-style: normal; font-variant-ligatures: normal; font-variant-caps: normal; font-weight: 400; letter-spacing: normal; orphans: 2; text-align: center; text-indent: 0px; text-transform: none; widows: 2; word-spacing: 0px; -webkit-text-stroke-width: 0px; white-space: normal; background-color: rgb(27, 29, 30); text-decoration-thickness: initial; text-decoration-style: initial; text-decoration-color: initial; display: inline !important; float: none;&quot;&gt;catalog-products&lt;/span&gt;" style="rounded=0;whiteSpace=wrap;html=1;" vertex="1" parent="Pcv1ixxrA63ozI6IQMF5-33">
          <mxGeometry x="75" width="120" height="60" as="geometry" />
        </mxCell>
        <mxCell id="Pcv1ixxrA63ozI6IQMF5-25" value="catalog_id" style="ellipse;whiteSpace=wrap;html=1;aspect=fixed;" vertex="1" parent="Pcv1ixxrA63ozI6IQMF5-33">
          <mxGeometry x="95" y="140" width="80" height="80" as="geometry" />
        </mxCell>
        <mxCell id="Pcv1ixxrA63ozI6IQMF5-26" value="product_id" style="ellipse;whiteSpace=wrap;html=1;aspect=fixed;" vertex="1" parent="Pcv1ixxrA63ozI6IQMF5-33">
          <mxGeometry x="185" y="140" width="80" height="80" as="geometry" />
        </mxCell>
        <mxCell id="Pcv1ixxrA63ozI6IQMF5-27" value="id" style="ellipse;whiteSpace=wrap;html=1;aspect=fixed;" vertex="1" parent="Pcv1ixxrA63ozI6IQMF5-33">
          <mxGeometry y="140" width="80" height="80" as="geometry" />
        </mxCell>
        <mxCell id="Pcv1ixxrA63ozI6IQMF5-34" value="" style="group" vertex="1" connectable="0" parent="1">
          <mxGeometry x="123" y="40" width="460" height="250" as="geometry" />
        </mxCell>
        <mxCell id="Pcv1ixxrA63ozI6IQMF5-13" style="rounded=0;orthogonalLoop=1;jettySize=auto;html=1;" edge="1" parent="Pcv1ixxrA63ozI6IQMF5-34" source="Pcv1ixxrA63ozI6IQMF5-6" target="Pcv1ixxrA63ozI6IQMF5-10">
          <mxGeometry relative="1" as="geometry" />
        </mxCell>
        <mxCell id="Pcv1ixxrA63ozI6IQMF5-16" style="rounded=0;orthogonalLoop=1;jettySize=auto;html=1;" edge="1" parent="Pcv1ixxrA63ozI6IQMF5-34" source="Pcv1ixxrA63ozI6IQMF5-6" target="Pcv1ixxrA63ozI6IQMF5-7">
          <mxGeometry relative="1" as="geometry" />
        </mxCell>
        <mxCell id="Pcv1ixxrA63ozI6IQMF5-17" style="edgeStyle=none;rounded=0;orthogonalLoop=1;jettySize=auto;html=1;" edge="1" parent="Pcv1ixxrA63ozI6IQMF5-34" source="Pcv1ixxrA63ozI6IQMF5-6" target="Pcv1ixxrA63ozI6IQMF5-8">
          <mxGeometry relative="1" as="geometry" />
        </mxCell>
        <mxCell id="Pcv1ixxrA63ozI6IQMF5-18" style="edgeStyle=none;rounded=0;orthogonalLoop=1;jettySize=auto;html=1;entryX=0.5;entryY=0;entryDx=0;entryDy=0;" edge="1" parent="Pcv1ixxrA63ozI6IQMF5-34" source="Pcv1ixxrA63ozI6IQMF5-6" target="Pcv1ixxrA63ozI6IQMF5-9">
          <mxGeometry relative="1" as="geometry" />
        </mxCell>
        <mxCell id="Pcv1ixxrA63ozI6IQMF5-32" style="edgeStyle=none;rounded=0;orthogonalLoop=1;jettySize=auto;html=1;" edge="1" parent="Pcv1ixxrA63ozI6IQMF5-34" source="Pcv1ixxrA63ozI6IQMF5-6" target="Pcv1ixxrA63ozI6IQMF5-31">
          <mxGeometry relative="1" as="geometry" />
        </mxCell>
        <mxCell id="Pcv1ixxrA63ozI6IQMF5-6" value="&lt;span style=&quot;color: rgb(240, 240, 240); font-family: Helvetica; font-size: 12px; font-style: normal; font-variant-ligatures: normal; font-variant-caps: normal; font-weight: 400; letter-spacing: normal; orphans: 2; text-align: center; text-indent: 0px; text-transform: none; widows: 2; word-spacing: 0px; -webkit-text-stroke-width: 0px; white-space: normal; background-color: rgb(27, 29, 30); text-decoration-thickness: initial; text-decoration-style: initial; text-decoration-color: initial; display: inline !important; float: none;&quot;&gt;catalog&lt;/span&gt;" style="rounded=0;whiteSpace=wrap;html=1;" vertex="1" parent="Pcv1ixxrA63ozI6IQMF5-34">
          <mxGeometry x="170" width="120" height="60" as="geometry" />
        </mxCell>
        <mxCell id="Pcv1ixxrA63ozI6IQMF5-7" value="name" style="ellipse;whiteSpace=wrap;html=1;aspect=fixed;" vertex="1" parent="Pcv1ixxrA63ozI6IQMF5-34">
          <mxGeometry x="190" y="170" width="80" height="80" as="geometry" />
        </mxCell>
        <mxCell id="Pcv1ixxrA63ozI6IQMF5-8" value="image" style="ellipse;whiteSpace=wrap;html=1;aspect=fixed;" vertex="1" parent="Pcv1ixxrA63ozI6IQMF5-34">
          <mxGeometry x="280" y="170" width="80" height="80" as="geometry" />
        </mxCell>
        <mxCell id="Pcv1ixxrA63ozI6IQMF5-9" value="artical" style="ellipse;whiteSpace=wrap;html=1;aspect=fixed;" vertex="1" parent="Pcv1ixxrA63ozI6IQMF5-34">
          <mxGeometry x="380" y="170" width="80" height="80" as="geometry" />
        </mxCell>
        <mxCell id="Pcv1ixxrA63ozI6IQMF5-10" value="id" style="ellipse;whiteSpace=wrap;html=1;aspect=fixed;" vertex="1" parent="Pcv1ixxrA63ozI6IQMF5-34">
          <mxGeometry y="170" width="80" height="80" as="geometry" />
        </mxCell>
        <mxCell id="Pcv1ixxrA63ozI6IQMF5-31" value="parnt_id" style="ellipse;whiteSpace=wrap;html=1;aspect=fixed;" vertex="1" parent="Pcv1ixxrA63ozI6IQMF5-34">
          <mxGeometry x="100" y="170" width="80" height="80" as="geometry" />
        </mxCell>
        <mxCell id="Pcv1ixxrA63ozI6IQMF5-36" style="edgeStyle=orthogonalEdgeStyle;rounded=0;orthogonalLoop=1;jettySize=auto;html=1;entryX=0.5;entryY=1;entryDx=0;entryDy=0;" edge="1" parent="1" source="Pcv1ixxrA63ozI6IQMF5-25" target="Pcv1ixxrA63ozI6IQMF5-10">
          <mxGeometry relative="1" as="geometry">
            <Array as="points">
              <mxPoint x="848" y="370" />
              <mxPoint x="163" y="370" />
            </Array>
          </mxGeometry>
        </mxCell>
        <mxCell id="Pcv1ixxrA63ozI6IQMF5-77" value="" style="group" vertex="1" connectable="0" parent="1">
          <mxGeometry x="80" y="400" width="755" height="660" as="geometry" />
        </mxCell>
        <mxCell id="Pcv1ixxrA63ozI6IQMF5-47" style="rounded=0;orthogonalLoop=1;jettySize=auto;html=1;" edge="1" parent="Pcv1ixxrA63ozI6IQMF5-77" source="Pcv1ixxrA63ozI6IQMF5-52" target="Pcv1ixxrA63ozI6IQMF5-56">
          <mxGeometry relative="1" as="geometry" />
        </mxCell>
        <mxCell id="Pcv1ixxrA63ozI6IQMF5-48" style="rounded=0;orthogonalLoop=1;jettySize=auto;html=1;" edge="1" parent="Pcv1ixxrA63ozI6IQMF5-77" source="Pcv1ixxrA63ozI6IQMF5-52" target="Pcv1ixxrA63ozI6IQMF5-53">
          <mxGeometry relative="1" as="geometry" />
        </mxCell>
        <mxCell id="Pcv1ixxrA63ozI6IQMF5-51" style="edgeStyle=none;rounded=0;orthogonalLoop=1;jettySize=auto;html=1;" edge="1" parent="Pcv1ixxrA63ozI6IQMF5-77" source="Pcv1ixxrA63ozI6IQMF5-52" target="Pcv1ixxrA63ozI6IQMF5-57">
          <mxGeometry relative="1" as="geometry" />
        </mxCell>
        <mxCell id="Pcv1ixxrA63ozI6IQMF5-52" value="&lt;span style=&quot;color: rgb(240, 240, 240); font-family: Helvetica; font-size: 12px; font-style: normal; font-variant-ligatures: normal; font-variant-caps: normal; font-weight: 400; letter-spacing: normal; orphans: 2; text-align: center; text-indent: 0px; text-transform: none; widows: 2; word-spacing: 0px; -webkit-text-stroke-width: 0px; white-space: normal; background-color: rgb(27, 29, 30); text-decoration-thickness: initial; text-decoration-style: initial; text-decoration-color: initial; display: inline !important; float: none;&quot;&gt;menu(shop by cat)&lt;/span&gt;" style="rounded=0;whiteSpace=wrap;html=1;container=0;" vertex="1" parent="Pcv1ixxrA63ozI6IQMF5-77">
          <mxGeometry x="83" width="120" height="60" as="geometry" />
        </mxCell>
        <mxCell id="Pcv1ixxrA63ozI6IQMF5-53" value="Data" style="ellipse;whiteSpace=wrap;html=1;aspect=fixed;container=0;" vertex="1" parent="Pcv1ixxrA63ozI6IQMF5-77">
          <mxGeometry x="190" y="160" width="80" height="80" as="geometry" />
        </mxCell>
        <mxCell id="Pcv1ixxrA63ozI6IQMF5-56" value="id" style="ellipse;whiteSpace=wrap;html=1;aspect=fixed;container=0;" vertex="1" parent="Pcv1ixxrA63ozI6IQMF5-77">
          <mxGeometry y="160" width="80" height="80" as="geometry" />
        </mxCell>
        <mxCell id="Pcv1ixxrA63ozI6IQMF5-57" value="brand_id" style="ellipse;whiteSpace=wrap;html=1;aspect=fixed;container=0;" vertex="1" parent="Pcv1ixxrA63ozI6IQMF5-77">
          <mxGeometry x="100" y="160" width="80" height="80" as="geometry" />
        </mxCell>
        <mxCell id="Pcv1ixxrA63ozI6IQMF5-75" value="&amp;nbsp; Row =&amp;gt;" style="rounded=0;whiteSpace=wrap;html=1;align=left;container=0;" vertex="1" parent="Pcv1ixxrA63ozI6IQMF5-77">
          <mxGeometry x="33" y="270" width="380" height="120" as="geometry" />
        </mxCell>
        <mxCell id="Pcv1ixxrA63ozI6IQMF5-64" value="&lt;span style=&quot;color: rgb(240, 240, 240); font-family: Helvetica; font-size: 12px; font-style: normal; font-variant-ligatures: normal; font-variant-caps: normal; font-weight: 400; letter-spacing: normal; orphans: 2; text-align: center; text-indent: 0px; text-transform: none; widows: 2; word-spacing: 0px; -webkit-text-stroke-width: 0px; white-space: normal; background-color: rgb(27, 29, 30); text-decoration-thickness: initial; text-decoration-style: initial; text-decoration-color: initial; display: inline !important; float: none;&quot;&gt;id_category&lt;/span&gt;" style="shape=card;whiteSpace=wrap;html=1;container=0;" vertex="1" parent="Pcv1ixxrA63ozI6IQMF5-77">
          <mxGeometry x="103" y="280" width="80" height="100" as="geometry" />
        </mxCell>
        <mxCell id="Pcv1ixxrA63ozI6IQMF5-65" value="url" style="shape=card;whiteSpace=wrap;html=1;container=0;" vertex="1" parent="Pcv1ixxrA63ozI6IQMF5-77">
          <mxGeometry x="200" y="280" width="80" height="100" as="geometry" />
        </mxCell>
        <mxCell id="Pcv1ixxrA63ozI6IQMF5-66" value="name" style="shape=card;whiteSpace=wrap;html=1;container=0;" vertex="1" parent="Pcv1ixxrA63ozI6IQMF5-77">
          <mxGeometry x="300" y="280" width="80" height="100" as="geometry" />
        </mxCell>
        <mxCell id="Pcv1ixxrA63ozI6IQMF5-67" style="edgeStyle=none;rounded=0;orthogonalLoop=1;jettySize=auto;html=1;" edge="1" parent="Pcv1ixxrA63ozI6IQMF5-77" source="Pcv1ixxrA63ozI6IQMF5-53" target="Pcv1ixxrA63ozI6IQMF5-64">
          <mxGeometry relative="1" as="geometry" />
        </mxCell>
        <mxCell id="Pcv1ixxrA63ozI6IQMF5-68" style="edgeStyle=none;rounded=0;orthogonalLoop=1;jettySize=auto;html=1;" edge="1" parent="Pcv1ixxrA63ozI6IQMF5-77" source="Pcv1ixxrA63ozI6IQMF5-53" target="Pcv1ixxrA63ozI6IQMF5-65">
          <mxGeometry relative="1" as="geometry" />
        </mxCell>
        <mxCell id="Pcv1ixxrA63ozI6IQMF5-69" style="edgeStyle=none;rounded=0;orthogonalLoop=1;jettySize=auto;html=1;" edge="1" parent="Pcv1ixxrA63ozI6IQMF5-77" source="Pcv1ixxrA63ozI6IQMF5-53" target="Pcv1ixxrA63ozI6IQMF5-66">
          <mxGeometry relative="1" as="geometry" />
        </mxCell>
        <mxCell id="Pcv1ixxrA63ozI6IQMF5-72" style="edgeStyle=none;rounded=0;orthogonalLoop=1;jettySize=auto;html=1;" edge="1" parent="Pcv1ixxrA63ozI6IQMF5-77" source="Pcv1ixxrA63ozI6IQMF5-71" target="Pcv1ixxrA63ozI6IQMF5-73">
          <mxGeometry relative="1" as="geometry">
            <mxPoint x="680" y="570" as="targetPoint" />
          </mxGeometry>
        </mxCell>
        <mxCell id="Pcv1ixxrA63ozI6IQMF5-71" value="&lt;span style=&quot;color: rgb(240, 240, 240); font-family: Helvetica; font-size: 12px; font-style: normal; font-variant-ligatures: normal; font-variant-caps: normal; font-weight: 400; letter-spacing: normal; orphans: 2; text-align: center; text-indent: 0px; text-transform: none; widows: 2; word-spacing: 0px; -webkit-text-stroke-width: 0px; white-space: normal; background-color: rgb(27, 29, 30); text-decoration-thickness: initial; text-decoration-style: initial; text-decoration-color: initial; display: inline !important; float: none;&quot;&gt;id_category&lt;/span&gt;" style="shape=card;whiteSpace=wrap;html=1;container=0;" vertex="1" parent="Pcv1ixxrA63ozI6IQMF5-77">
          <mxGeometry x="640" y="290" width="80" height="100" as="geometry" />
        </mxCell>
        <mxCell id="Pcv1ixxrA63ozI6IQMF5-74" value="Append to data array" style="edgeStyle=elbowEdgeStyle;rounded=0;orthogonalLoop=1;jettySize=auto;html=1;entryX=1;entryY=0.5;entryDx=0;entryDy=0;" edge="1" parent="Pcv1ixxrA63ozI6IQMF5-77" source="Pcv1ixxrA63ozI6IQMF5-73" target="Pcv1ixxrA63ozI6IQMF5-53">
          <mxGeometry x="-0.1889" y="-2" relative="1" as="geometry">
            <mxPoint as="offset" />
          </mxGeometry>
        </mxCell>
        <mxCell id="Pcv1ixxrA63ozI6IQMF5-73" value="has&lt;br&gt;brand id&lt;br&gt;on product" style="rhombus;whiteSpace=wrap;html=1;container=0;" vertex="1" parent="Pcv1ixxrA63ozI6IQMF5-77">
          <mxGeometry x="605" y="510" width="150" height="150" as="geometry" />
        </mxCell>
      </root>
    </mxGraphModel>
  </diagram>
</mxfile>
